<?xml version="1.0" encoding="utf-8"?>
<!-- Generator: Adobe Illustrator 27.2.0, SVG Export Plug-In . SVG Version: 6.00 Build 0)  -->
<svg version="1.1" id="Layer_1" xmlns="http://www.w3.org/2000/svg" xmlns:xlink="http://www.w3.org/1999/xlink" x="0px" y="0px"
	 viewBox="0 0 1000 832" style="enable-background:new 0 0 1000 832;" xml:space="preserve">
<style type="text/css">
	.st0{fill:#1C3948;}
	.st1{fill:#2395C3;}
</style>
<path class="st0" d="M423.7,559.7c9.3,8.2,18.5,16,27.2,24.3c20.5,19.5,30.3,43.9,30.8,72c0.3,18.1,0.1,36.1,0.1,54.2
	c0,6.1-2.9,8.6-8.9,7.7c-34.7-5-68-14.8-98.8-31.8c-41.4-22.8-74.5-54.7-101.3-93.5c-23.1-33.4-36.6-70.5-45.1-109.8
	c-1.6-7.6,2.3-14.4,9.3-16.6c6.8-2.2,13.8,0.9,16.8,7.9c3.2,7.3,4.1,15.4,6.4,23c4.5,15.1,9,30.2,17.5,43.8
	c3.3,5.3,7.4,10,12.4,13.7c23.5,17.5,44.4,38.2,66.7,57.1c6.1,5.2,12.1,9.7,20.9,8.2c6.5-1.1,10.5-4.5,12.7-10.6
	c2.2-5.8-0.1-10.4-4.1-14c-12-11-24.3-21.6-36.4-32.4c-1.7-1.5-3.4-3-5.1-4.6c-10.1-9.6-10.8-23.7-1.8-34.2c9-10.5,24.6-12.3,35.1-4
	c13.9,11,26.9,23.1,40.2,34.8C419.9,556.5,421.7,558,423.7,559.7z"/>
<path class="st0" d="M767.5,492.9c-10.9,47.6-31.5,90-63.4,126.4c-36.4,41.6-80.4,72.2-134,88c-15.3,4.5-30.7,8.2-46.6,10.1
	c-6,0.7-8.3-1.4-8.3-7.5c0.1-15.1,0.5-30.3,0-45.4c-1.1-36.9,12.9-66.6,40.9-90.3c20-16.9,40-33.9,59.1-51.8
	c15.6-14.6,37.2-5.5,43.3,9.3c3.7,9,1.6,20.1-5.6,26.5c-13.1,11.7-26.3,23.2-39.7,34.7c-7.4,6.4-9.5,13.6-5.3,20
	c4.5,6.9,15.3,9.6,23.1,5.6c4.4-2.2,7.8-5.9,11.5-9c21-18,41-37.1,63.4-53.5c12.9-9.5,19-23.6,24.1-38.2c4.6-13,8.7-26.2,11.8-39.7
	c2.5-10.5,10.7-15.1,19.7-11.4c5.9,2.5,9.8,9.6,8.5,15.9C769.4,486,768.5,489.2,767.5,492.9z"/>
<path class="st0" d="M548.8,548.8c-8.5,6.3-16,13.3-22.9,20.9c-6.8,7.6-12.2,16.2-17.1,25.2c-2.6-1.8-1.9-3.9-1.8-5.7
	c0.1-13,0.3-26,0.5-39c0-2.7-0.2-5.2-1.6-7.5c-2-3.3-4.9-4.7-8.6-4.3c-3.4,0.4-5.5,2.4-6.7,5.6c-0.8,2.2-0.9,4.4-0.9,6.7
	c0,12.5,0,25.1,0,37.6c0,1.8,0.4,3.6-0.5,5.2c-1,0.4-1.6,0-2-0.8c-10.5-20.5-27-35.2-45.6-47.9c-4.3-2.9-8.8-5.6-13.3-8.1
	c-2.4-1.4-3.4-3.1-3.4-5.8c0.1-36.8,0.1-73.6,0.2-110.3c0-13.6,4.4-25.7,14.7-34.9c12.2-11,26.6-13.8,41.8-8.2
	c11.3,4.2,21.9,4.4,33.2,0.5c30.6-10.8,57.3,13,57,42.4c-0.4,36-0.1,71.9,0,107.9c0,4.3-1.1,7-5,9
	C560.4,540.3,554.7,544.5,548.8,548.8 M518.3,407c-3.1-2.4-6.1-4.9-9.2-7.3c-8.2-6.3-12.2-6.4-20.4,0c-10.6,8.1-21,16.4-31.6,24.6
	c-5.3,4.1-10.8,7.9-15.7,12.3c-4.1,3.7-4.5,9.1-1.7,12.8c2.7,3.8,7.7,4.7,12.8,2.2c1.4-0.7,2.7-1.8,4.1-2.6c1-0.6,1.7-2.1,3.7-1.3
	c0,2.3,0,4.7,0,7.1c0,16.3-0.1,32.5,0,48.8c0,8,4.8,12.9,12.1,13c7.3,0,11.7-4.7,11.7-13.1c0.1-10.1,0.2-20.2,0-30.3
	c-0.1-4.1,1.2-6,5.6-5.7c5.8,0.3,11.7,0.3,17.6,0c4.2-0.2,5.8,1.2,5.7,5.5c-0.3,11.1-0.2,22.1-0.1,33.2c0.1,5.5,2.7,8.7,8,10.2
	c8.2,2.4,15.9-3.5,15.9-12.8c0.1-17.1,0-34.2,0-51.3c0-1.7-0.6-3.5,1-5.5c1.9,1.5,3.7,3,5.6,4.4c4.7,3.2,10.2,2.6,13.6-1.4
	c3.3-3.8,3-9.1-1-13.2c-1.7-1.7-3.7-3.2-5.6-4.7C540,423.7,529.4,415.6,518.3,407z"/>
<path class="st1" d="M321.5,304c19.7-32.7,45.4-59,78.6-77.5c21.3-11.9,44.3-19.2,68.5-22.9c47.4-7.3,91.9,1.8,132.8,25.7
	c43.7,25.5,74.2,62.7,90.4,111c0.7,2,1.3,4,1.6,6.1c1.2,7.1-2.3,12.9-8.9,14.7c-6.7,1.9-13.4-1.4-15.4-8.4
	c-3.5-12.4-8.1-24.3-14.5-35.6c-16.8-29.6-40.7-52.1-70.1-68.9c-19.9-11.3-41.4-18.4-64-21.1c-36.7-4.4-72,0.9-104.9,18.8
	c-39.7,21.6-68,53.3-84.8,95.2c-1.8,4.4-3,9-4.9,13.2c-2.5,5.4-7.8,8-13.7,7.2c-5.2-0.6-7.9-4-9.4-8.7c-0.6-2-0.2-3.8,0.3-5.7
	C307.1,332.1,313.4,317.9,321.5,304z"/>
<path class="st0" d="M389.6,166.8c16.1-6.7,32.2-12.4,48.9-16.1c2.3-0.5,4.5-0.8,6.8-0.6c6.3,0.5,11.2,5,11.9,10.9
	c0.7,5.4-3.2,11-9.2,12.8c-8.7,2.7-17.6,4.4-26.3,7.4c-54.5,18.6-97.7,52.1-131,98.8c-16.9,23.7-29.2,49.5-36,77.9
	c-0.4,1.6-0.9,3.1-1.4,4.7c-2.3,7.6-8,11.4-14.9,10.1c-6.8-1.3-11.2-7.3-10.5-14.8c0.7-8,3.7-15.5,6.2-23
	c15.3-45.8,41.7-84.3,77-116.9C334.4,196.6,360.4,179.6,389.6,166.8z"/>
<path class="st0" d="M601.8,192.2c-16.4-7.2-32.9-13.3-50.1-17c-8.7-1.9-12.5-6.3-11.9-13.4c0.6-7.6,7.1-12.7,14.6-11.2
	c44.8,8.9,84.4,28.7,119.8,57.2c35.2,28.4,61.5,63.8,80,105c6.2,13.8,10.9,28.2,14.8,42.8c2.1,7.9-1.7,14.5-9.7,16.9
	c-6.6,2.1-12.9-1.4-15.1-9.3c-3.6-12.8-7.3-25.6-12.6-37.9C708,271,670.4,229.5,618.7,200.7C613.3,197.7,607.7,195.1,601.8,192.2z"
	/>
<path class="st0" d="M531.9,284.5c21,23.5,11.4,57.4-11.3,69.2c-27.1,14.1-57.7,1.2-65.9-27.6c-5-17.8,2.7-39.4,17.4-48.7
	c17.9-11.4,40-10.3,54.9,2.6C528.6,281.4,530.1,282.8,531.9,284.5z"/>
<path class="st1" d="M592.1,281.8c27.9,21.8,44.8,50.4,53.4,84c8.4,32.8,4.6,64.8-7.2,96.2c-1.3,3.3-2.4,6.8-4.3,9.8
	c-4,6.1-10.2,7.9-16.5,5c-5.8-2.7-8.1-8.4-5.6-15.3c4.3-11.8,8.8-23.4,10.9-35.9c6.6-40.2-2.7-76.1-28.9-107.5
	c-7.3-8.7-16-15.7-25.3-22.1c-5.5-3.8-7.6-9.1-6.1-14.7c1.4-5.4,5.1-8.5,10.5-9.6c4.4-0.8,7.9,1.3,11.2,3.7
	C586.9,277.4,589.4,279.5,592.1,281.8z"/>
<path class="st1" d="M423.5,272.2c6.7,1,9.8,5.4,10.6,11c0.8,5.3-2,9.5-6.5,12.7c-30.1,21.7-48.7,50.7-54.3,87.4
	c-3.8,24.8-0.8,48.9,9.2,72.1c0.9,2.1,1.7,4.2,2.4,6.4c2,6.1-0.2,11.7-5.6,14.6c-5.5,2.9-12.4,1.4-16.2-3.7
	c-2.4-3.2-3.8-6.8-5.2-10.5c-9.1-23.9-13.3-48.6-10.6-74.1c3.5-33.4,16.2-63,38.6-88.3c7.1-8.1,15-15.4,23.4-22.1
	C413.5,274.5,417.6,271.5,423.5,272.2z"/>
<path class="st0" d="M722.7,441.3c-5.2,24.1-10,47.8-16.4,71.1c-3,11-8.7,20.3-18.2,26.9c-0.8,0.6-1.6,1.1-2.5,1.6
	c-0.4,0.2-0.9,0.2-1.4,0.3c-1.6-1.3-1-3-1-4.5c-0.2-17.6-7.9-30.6-23.8-38.3c-4.6-2.2-5-4.2-2.1-7.9c2.9-3.7,5.1-8,8.3-11.4
	c8.8-9.2,11.9-20.6,13.8-32.6c1.4-9.1,3.2-18.2,5.1-27.3c2-9.4,7.5-15.1,15.3-16.2c8.5-1.2,17.4,3.5,22.1,11.4
	c3.6,6.2,3.6,12.7,2.5,19.4C724,436.1,723.4,438.5,722.7,441.3z"/>
<path class="st0" d="M272.1,428.6c-0.5-8.3,1.6-15.3,7.6-20.7c11.1-10,28.8-4.8,32.1,9.7c3,13.1,5.3,26.4,7.7,39.6
	c1.1,6.3,3.7,11.7,7.7,16.6c4.5,5.5,9.1,11.1,12.6,17.3c0.8,1.4,2,2.6,1.7,5.1c-19.7,7.7-28.9,22.9-28.4,44.4
	c-3.5,0.1-5.5-2.2-7.7-3.9c-9.4-7.9-13.8-18.5-16.5-30.2c-5.5-24.1-11.7-47.9-16.2-72.2C272.4,432.6,272.3,430.8,272.1,428.6z"/>
<path class="st0" d="M776.9,449.1c-11.1,3.3-20.4,0.7-27.5-7.9c-7.1-8.6-7.8-18.4-2.5-28.2c4.9-9.2,13-13.3,23.3-12.9
	c11.1,0.4,21.3,9.7,23.1,20.9C795.3,433.1,789,444.1,776.9,449.1z"/>
<path class="st0" d="M223.3,400.5c20.4-2.1,35.3,16.5,27.8,34.2c-4.6,10.8-16.6,17.6-27.6,15.6c-11.4-2.1-20.5-12.9-20.7-24.6
	C202.6,413.1,210.1,403.7,223.3,400.5z"/>
<path class="st0" d="M509.6,132.7c9.8,6,14.3,15,12.6,24.6c-1.9,10.5-8.9,17.7-19.5,19.8c-8.8,1.8-19.5-2.9-24.4-10.7
	c-5.4-8.5-4.7-19.9,1.6-28.3c5.5-7.3,15.2-10.4,24.4-7.7C506,131.1,507.6,131.9,509.6,132.7z"/>
</svg>
